<svg width="36" height="25" viewBox="0 0 36 25" fill="none" xmlns="http://www.w3.org/2000/svg">
<g clip-path="url(#clip0_1_20)">
<path fill-rule="evenodd" clip-rule="evenodd" d="M1.84615 0C1.1027 0 0.5 0.621833 0.5 1.38889C0.5 2.15594 1.1027 2.77778 1.84615 2.77778H34.1538C34.8972 2.77778 35.5 2.15594 35.5 1.38889C35.5 0.621833 34.8972 0 34.1538 0H1.84615ZM0.5 12.5C0.5 11.7329 1.1027 11.1111 1.84615 11.1111H34.1538C34.8972 11.1111 35.5 11.7329 35.5 12.5C35.5 13.2671 34.8972 13.8889 34.1538 13.8889H1.84615C1.1027 13.8889 0.5 13.2671 0.5 12.5ZM0.5 23.6111C0.5 22.8442 1.1027 22.2222 1.84615 22.2222H34.1538C34.8972 22.2222 35.5 22.8442 35.5 23.6111C35.5 24.3781 34.8972 25 34.1538 25H1.84615C1.1027 25 0.5 24.3781 0.5 23.6111Z" fill="black"/>
</g>
<defs>
<clipPath id="clip0_1_20">
<rect width="35" height="25" fill="white" transform="translate(0.5)"/>
</clipPath>
</defs>
</svg>
